<svg width="22" height="17" viewBox="0 0 22 17" fill="none" xmlns="http://www.w3.org/2000/svg">
<path d="M0 1.07609C0 0.790691 0.108649 0.516984 0.302046 0.315178C0.495443 0.113373 0.757746 0 1.03125 0H20.9688C21.2423 0 21.5046 0.113373 21.698 0.315178C21.8914 0.516984 22 0.790691 22 1.07609C22 1.36148 21.8914 1.63519 21.698 1.837C21.5046 2.0388 21.2423 2.15217 20.9688 2.15217H1.03125C0.757746 2.15217 0.495443 2.0388 0.302046 1.837C0.108649 1.63519 0 1.36148 0 1.07609ZM0 8.25C0 7.9646 0.108649 7.6909 0.302046 7.48909C0.495443 7.28729 0.757746 7.17391 1.03125 7.17391H20.9688C21.2423 7.17391 21.5046 7.28729 21.698 7.48909C21.8914 7.6909 22 7.9646 22 8.25C22 8.5354 21.8914 8.8091 21.698 9.01091C21.5046 9.21271 21.2423 9.32609 20.9688 9.32609H1.03125C0.757746 9.32609 0.495443 9.21271 0.302046 9.01091C0.108649 8.8091 0 8.5354 0 8.25ZM1.03125 14.3478C0.757746 14.3478 0.495443 14.4612 0.302046 14.663C0.108649 14.8648 0 15.1385 0 15.4239C0 15.7093 0.108649 15.983 0.302046 16.1848C0.495443 16.3866 0.757746 16.5 1.03125 16.5H20.9688C21.2423 16.5 21.5046 16.3866 21.698 16.1848C21.8914 15.983 22 15.7093 22 15.4239C22 15.1385 21.8914 14.8648 21.698 14.663C21.5046 14.4612 21.2423 14.3478 20.9688 14.3478H1.03125Z" fill="#A02279"/>
</svg>
