<svg width="200" height="42" viewBox="0 0 200 42" fill="none" xmlns="http://www.w3.org/2000/svg">
<g clip-path="url(#clip0_3011_970)">
<path fill-rule="evenodd" clip-rule="evenodd" d="M39.1577 20.9503C39.1577 32.2126 30.5799 41.3436 19.9999 41.3436C9.41989 41.3436 0.842041 32.2126 0.842041 20.9503C0.842041 9.688 9.41989 0.556976 19.9999 0.556976C30.5821 0.556976 39.1577 9.688 39.1577 20.9503ZM10.2937 21.6355L10.3764 21.4972L15.3601 13.198C15.4329 13.0765 15.6042 13.0891 15.6593 13.2211C16.4919 15.2074 17.2103 17.6776 16.8737 19.2155C16.73 19.8483 16.3364 20.7052 15.8935 21.4972C15.8364 21.6125 15.7734 21.7256 15.7065 21.8346C15.675 21.8849 15.6219 21.9142 15.5648 21.9142H10.4394C10.3016 21.9142 10.2209 21.7549 10.2937 21.6355ZM32.5078 24.4913V23.1776C32.5078 23.0561 32.3976 22.9681 32.2893 23.0016L26.4613 24.7951C26.4298 24.8035 26.4022 24.8223 26.3805 24.8475C25.7564 25.5815 25.2259 26.074 25.0853 26.2045L25.0756 26.2136C24.7134 26.5404 24.2646 26.7186 23.7922 26.7186H21.6822V24.4285H23.3592C23.4025 24.4285 23.4439 24.4117 23.4754 24.3824L23.6918 24.1707C23.7844 24.0806 23.8946 23.9717 24.0264 23.8313C24.0377 23.8194 24.049 23.8073 24.0606 23.7951C24.1298 23.7216 24.2039 23.6431 24.2764 23.5569C24.3631 23.4668 24.4477 23.3662 24.5264 23.2677C24.6583 23.1169 24.7843 22.9597 24.9161 22.7942C25.0106 22.6853 25.0972 22.5616 25.1819 22.438C25.2763 22.3207 25.3688 22.1887 25.4554 22.063C25.4877 22.0125 25.522 21.9616 25.557 21.9095C25.5904 21.8599 25.6245 21.8092 25.6582 21.7571C25.7211 21.6565 25.7841 21.5496 25.8373 21.4491C26.0026 21.1767 26.1424 20.8854 26.2605 20.5942C26.3147 20.4695 26.358 20.3381 26.4001 20.2105C26.4054 20.1945 26.4107 20.1785 26.416 20.1626C26.4632 20.0138 26.5026 19.8735 26.5321 19.7247C26.6029 19.3748 26.6187 19.027 26.5872 18.6791C26.5793 18.5702 26.5715 18.4633 26.5478 18.3628V18.346C26.54 18.2748 26.5242 18.1952 26.5026 18.1218C26.4317 17.7824 26.3215 17.443 26.1817 17.1098C26.1345 16.9862 26.0794 16.8605 26.0263 16.7453C25.9003 16.496 25.7684 16.2466 25.6188 16.0057C25.5888 15.9548 25.5556 15.9032 25.5225 15.8517C25.497 15.8121 25.4716 15.7725 25.4476 15.7333C25.3528 15.5778 25.2463 15.4278 25.143 15.2823C25.1196 15.2494 25.0964 15.2168 25.0736 15.1843C25.0126 15.0991 24.9458 15.0138 24.8786 14.928C24.8417 14.8809 24.8047 14.8337 24.7685 14.7862C24.6662 14.6542 24.5658 14.5285 24.4634 14.4049C24.0973 13.9649 23.7135 13.5668 23.371 13.2274C23.308 13.1604 23.2391 13.0933 23.1683 13.0284C22.9026 12.7706 22.6605 12.5464 22.4577 12.3726C22.3968 12.3227 22.3422 12.2735 22.2913 12.2278C22.2567 12.1967 22.2239 12.1671 22.192 12.14C22.1305 12.0912 22.0772 12.048 22.0324 12.0117C22.0041 11.9887 21.9792 11.9685 21.9578 11.9514C21.942 11.9388 21.9243 11.9305 21.9066 11.9242L21.6822 11.8571V9.87923C21.6822 9.55657 21.5602 9.26743 21.3653 9.05579C21.1705 8.84419 20.8989 8.71428 20.5997 8.71428C20.0013 8.71428 19.5171 9.23599 19.5171 9.87923V11.2118L19.4049 11.1783L19.0998 11.0861L18.8223 11.0044C18.8215 11.0044 18.8207 11.004 18.8197 11.0036C18.8184 11.003 18.8167 11.0023 18.8144 11.0023H18.8085L16.7024 10.3947C16.6099 10.3674 16.5312 10.4743 16.5785 10.5644L16.915 11.2265C16.9341 11.2773 16.9583 11.3282 16.9832 11.3805C16.9993 11.4144 17.0157 11.4488 17.0312 11.4842C17.0863 11.6015 17.1414 11.7251 17.1945 11.8487C17.2418 11.9577 17.289 12.0645 17.3441 12.1819C17.3673 12.237 17.3909 12.2929 17.4148 12.3495C17.5028 12.5574 17.5953 12.7761 17.6866 13.0116C17.7653 13.2106 17.8441 13.4097 17.913 13.6171C18.1019 14.1388 18.281 14.6961 18.4365 15.2682C18.4752 15.3962 18.5062 15.5201 18.5375 15.6456C18.5508 15.6989 18.5642 15.7524 18.5782 15.8066L18.5999 15.9072C18.6629 16.1733 18.718 16.4373 18.7574 16.7034C18.7888 16.8856 18.8183 17.0596 18.8341 17.2355C18.8577 17.4346 18.8813 17.6337 18.8892 17.8327C18.905 18.015 18.9128 18.2057 18.9128 18.3879C18.9128 18.8531 18.8735 19.3014 18.781 19.7247C18.7752 19.7474 18.7694 19.7704 18.7635 19.7936C18.7376 19.8966 18.7108 20.0034 18.6786 20.106C18.6495 20.2159 18.6119 20.3258 18.5727 20.4399C18.5589 20.4802 18.5449 20.5211 18.531 20.5628C18.5284 20.5702 18.5258 20.5776 18.5232 20.5851C18.4943 20.668 18.4648 20.7525 18.4286 20.8352C18.2338 21.3338 17.9917 21.8304 17.7417 22.2955C17.3756 22.9849 17.0076 23.5904 16.7497 23.9801C16.7339 24.0053 16.7185 24.0292 16.7037 24.0523C16.6852 24.081 16.6677 24.1084 16.6513 24.1351C16.5706 24.2566 16.6532 24.4285 16.793 24.4285H19.5171V26.7186H16.7615C16.0214 26.7186 15.3365 26.2723 15.0058 25.5578C14.8346 25.1995 14.7676 24.8056 14.807 24.4201C14.8168 24.3048 14.7361 24.1959 14.6259 24.1959H9.05958C8.96509 24.1959 8.88834 24.2776 8.88834 24.3782V24.4997C8.88834 28.2795 11.7562 31.3427 15.2951 31.3427H25.2803C27.152 31.3427 28.2148 29.5271 29.2594 27.7425C29.5506 27.2451 29.8404 26.75 30.1459 26.2974C30.695 25.4844 32.0158 24.8391 32.4015 24.6631C32.4645 24.6338 32.5078 24.5667 32.5078 24.4913Z" fill="white"/>
</g>
<path d="M63.7657 32.6743C61.6537 32.6743 59.7124 32.1836 57.9417 31.2023C56.1924 30.221 54.795 28.8556 53.7497 27.1063C52.7257 25.3356 52.2137 23.3516 52.2137 21.1543C52.2137 18.957 52.7257 16.9836 53.7497 15.2343C54.795 13.485 56.1924 12.1196 57.9417 11.1383C59.7124 10.157 61.6537 9.66629 63.7657 9.66629C65.8777 9.66629 67.8084 10.157 69.5577 11.1383C71.3284 12.1196 72.715 13.485 73.7177 15.2343C74.7417 16.9836 75.2537 18.957 75.2537 21.1543C75.2537 23.3516 74.7417 25.3356 73.7177 27.1063C72.6937 28.8556 71.307 30.221 69.5577 31.2023C67.8084 32.1836 65.8777 32.6743 63.7657 32.6743ZM63.7657 27.6823C65.5577 27.6823 66.987 27.085 68.0537 25.8903C69.1417 24.6956 69.6857 23.117 69.6857 21.1543C69.6857 19.1703 69.1417 17.5916 68.0537 16.4183C66.987 15.2236 65.5577 14.6263 63.7657 14.6263C61.9524 14.6263 60.5017 15.213 59.4137 16.3863C58.347 17.5596 57.8137 19.149 57.8137 21.1543C57.8137 23.1383 58.347 24.7276 59.4137 25.9223C60.5017 27.0956 61.9524 27.6823 63.7657 27.6823ZM82.81 17.1223C83.3433 16.2903 84.0793 15.6183 85.018 15.1063C85.9566 14.5943 87.0553 14.3383 88.314 14.3383C89.786 14.3383 91.1193 14.7116 92.314 15.4583C93.5086 16.205 94.4473 17.2716 95.13 18.6583C95.834 20.045 96.186 21.6556 96.186 23.4903C96.186 25.325 95.834 26.9463 95.13 28.3543C94.4473 29.741 93.5086 30.8183 92.314 31.5863C91.1193 32.333 89.786 32.7063 88.314 32.7063C87.0766 32.7063 85.978 32.4503 85.018 31.9383C84.0793 31.4263 83.3433 30.765 82.81 29.9543V40.9623H77.338V14.5943H82.81V17.1223ZM90.618 23.4903C90.618 22.125 90.234 21.0583 89.466 20.2903C88.7193 19.501 87.7913 19.1063 86.682 19.1063C85.594 19.1063 84.666 19.501 83.898 20.2903C83.1513 21.0796 82.778 22.157 82.778 23.5223C82.778 24.8876 83.1513 25.965 83.898 26.7543C84.666 27.5436 85.594 27.9383 86.682 27.9383C87.77 27.9383 88.698 27.5436 89.466 26.7543C90.234 25.9436 90.618 24.8556 90.618 23.4903ZM114.929 23.2343C114.929 23.7463 114.897 24.2796 114.833 24.8343H102.449C102.534 25.9436 102.886 26.797 103.505 27.3943C104.145 27.9703 104.923 28.2583 105.841 28.2583C107.206 28.2583 108.155 27.6823 108.689 26.5303H114.513C114.214 27.7036 113.67 28.7596 112.881 29.6983C112.113 30.637 111.142 31.373 109.969 31.9063C108.795 32.4396 107.483 32.7063 106.033 32.7063C104.283 32.7063 102.726 32.333 101.361 31.5863C99.9954 30.8396 98.9287 29.773 98.1607 28.3863C97.3927 26.9996 97.0087 25.3783 97.0087 23.5223C97.0087 21.6663 97.3821 20.045 98.1287 18.6583C98.8967 17.2716 99.9634 16.205 101.329 15.4583C102.694 14.7116 104.262 14.3383 106.033 14.3383C107.761 14.3383 109.297 14.701 110.641 15.4263C111.985 16.1516 113.03 17.1863 113.777 18.5303C114.545 19.8743 114.929 21.4423 114.929 23.2343ZM109.329 21.7943C109.329 20.8556 109.009 20.109 108.369 19.5543C107.729 18.9996 106.929 18.7223 105.969 18.7223C105.051 18.7223 104.273 18.989 103.633 19.5223C103.014 20.0556 102.63 20.813 102.481 21.7943H109.329ZM127.735 14.4023C129.826 14.4023 131.49 15.085 132.727 16.4503C133.986 17.7943 134.615 19.6503 134.615 22.0183V32.4503H129.175V22.7543C129.175 21.5596 128.866 20.6316 128.247 19.9703C127.629 19.309 126.797 18.9783 125.751 18.9783C124.706 18.9783 123.874 19.309 123.255 19.9703C122.637 20.6316 122.327 21.5596 122.327 22.7543V32.4503H116.855V14.5943H122.327V16.9623C122.882 16.173 123.629 15.5543 124.567 15.1063C125.506 14.637 126.562 14.4023 127.735 14.4023ZM145.586 32.6743C143.943 32.6743 142.471 32.4076 141.17 31.8743C139.869 31.341 138.823 30.5516 138.034 29.5063C137.266 28.461 136.861 27.2023 136.818 25.7303H142.642C142.727 26.5623 143.015 27.2023 143.506 27.6503C143.997 28.077 144.637 28.2903 145.426 28.2903C146.237 28.2903 146.877 28.109 147.346 27.7463C147.815 27.3623 148.05 26.8396 148.05 26.1783C148.05 25.6236 147.858 25.165 147.474 24.8023C147.111 24.4396 146.653 24.141 146.098 23.9063C145.565 23.6716 144.797 23.405 143.794 23.1063C142.343 22.6583 141.159 22.2103 140.242 21.7623C139.325 21.3143 138.535 20.653 137.874 19.7783C137.213 18.9036 136.882 17.7623 136.882 16.3543C136.882 14.2636 137.639 12.6316 139.154 11.4583C140.669 10.2636 142.642 9.66629 145.074 9.66629C147.549 9.66629 149.543 10.2636 151.058 11.4583C152.573 12.6316 153.383 14.2743 153.49 16.3863H147.57C147.527 15.661 147.261 15.0956 146.77 14.6903C146.279 14.2636 145.65 14.0503 144.882 14.0503C144.221 14.0503 143.687 14.2316 143.282 14.5943C142.877 14.9356 142.674 15.437 142.674 16.0983C142.674 16.8236 143.015 17.389 143.698 17.7943C144.381 18.1996 145.447 18.637 146.898 19.1063C148.349 19.597 149.522 20.0663 150.418 20.5143C151.335 20.9623 152.125 21.613 152.786 22.4663C153.447 23.3196 153.778 24.4183 153.778 25.7623C153.778 27.0423 153.447 28.205 152.786 29.2503C152.146 30.2956 151.207 31.1276 149.97 31.7463C148.733 32.365 147.271 32.6743 145.586 32.6743ZM173.017 23.2343C173.017 23.7463 172.985 24.2796 172.921 24.8343H160.537C160.623 25.9436 160.975 26.797 161.593 27.3943C162.233 27.9703 163.012 28.2583 163.929 28.2583C165.295 28.2583 166.244 27.6823 166.777 26.5303H172.601C172.303 27.7036 171.759 28.7596 170.969 29.6983C170.201 30.637 169.231 31.373 168.057 31.9063C166.884 32.4396 165.572 32.7063 164.121 32.7063C162.372 32.7063 160.815 32.333 159.449 31.5863C158.084 30.8396 157.017 29.773 156.249 28.3863C155.481 26.9996 155.097 25.3783 155.097 23.5223C155.097 21.6663 155.471 20.045 156.217 18.6583C156.985 17.2716 158.052 16.205 159.417 15.4583C160.783 14.7116 162.351 14.3383 164.121 14.3383C165.849 14.3383 167.385 14.701 168.729 15.4263C170.073 16.1516 171.119 17.1863 171.865 18.5303C172.633 19.8743 173.017 21.4423 173.017 23.2343ZM167.417 21.7943C167.417 20.8556 167.097 20.109 166.457 19.5543C165.817 18.9996 165.017 18.7223 164.057 18.7223C163.14 18.7223 162.361 18.989 161.721 19.5223C161.103 20.0556 160.719 20.813 160.569 21.7943H167.417ZM173.856 23.4903C173.856 21.6556 174.198 20.045 174.88 18.6583C175.584 17.2716 176.534 16.205 177.728 15.4583C178.923 14.7116 180.256 14.3383 181.728 14.3383C182.987 14.3383 184.086 14.5943 185.024 15.1063C185.984 15.6183 186.72 16.2903 187.232 17.1223V14.5943H192.704V32.4503H187.232V29.9223C186.699 30.7543 185.952 31.4263 184.992 31.9383C184.054 32.4503 182.955 32.7063 181.696 32.7063C180.246 32.7063 178.923 32.333 177.728 31.5863C176.534 30.8183 175.584 29.741 174.88 28.3543C174.198 26.9463 173.856 25.325 173.856 23.4903ZM187.232 23.5223C187.232 22.157 186.848 21.0796 186.08 20.2903C185.334 19.501 184.416 19.1063 183.328 19.1063C182.24 19.1063 181.312 19.501 180.544 20.2903C179.798 21.0583 179.424 22.125 179.424 23.4903C179.424 24.8556 179.798 25.9436 180.544 26.7543C181.312 27.5436 182.24 27.9383 183.328 27.9383C184.416 27.9383 185.334 27.5436 186.08 26.7543C186.848 25.965 187.232 24.8876 187.232 23.5223Z" fill="white"/>
<defs>
<clipPath id="clip0_3011_970">
<rect width="38.3157" height="40.7866" fill="white" transform="translate(0.842041 0.556976)"/>
</clipPath>
</defs>
</svg>
